<mxfile host="app.diagrams.net" modified="2022-09-28T07:04:13.918Z" agent="5.0 (Windows NT 10.0; Win64; x64) AppleWebKit/537.36 (KHTML, like Gecko) Chrome/105.0.0.0 Safari/537.36" etag="2kZeCoC2u6ca68uzA6v8" version="20.3.0" type="github">
  <diagram id="JoGJBv-pY6J9CF7DYz9s" name="Page-1">
    <mxGraphModel dx="903" dy="497" grid="1" gridSize="10" guides="1" tooltips="1" connect="1" arrows="1" fold="1" page="1" pageScale="1" pageWidth="827" pageHeight="1169" math="0" shadow="0">
      <root>
        <mxCell id="0" />
        <mxCell id="1" parent="0" />
        <mxCell id="9_eo66QmF36sM_EqYJlc-26" value="" style="edgeStyle=orthogonalEdgeStyle;rounded=0;orthogonalLoop=1;jettySize=auto;html=1;fontSize=30;" edge="1" parent="1" source="9_eo66QmF36sM_EqYJlc-1">
          <mxGeometry relative="1" as="geometry">
            <mxPoint x="250" y="80" as="targetPoint" />
          </mxGeometry>
        </mxCell>
        <mxCell id="9_eo66QmF36sM_EqYJlc-1" value="Start" style="rounded=1;whiteSpace=wrap;html=1;fontSize=19;" vertex="1" parent="1">
          <mxGeometry x="40" y="40" width="120" height="80" as="geometry" />
        </mxCell>
        <mxCell id="9_eo66QmF36sM_EqYJlc-30" value="" style="edgeStyle=orthogonalEdgeStyle;rounded=0;orthogonalLoop=1;jettySize=auto;html=1;fontSize=30;" edge="1" parent="1" source="9_eo66QmF36sM_EqYJlc-27" target="9_eo66QmF36sM_EqYJlc-29">
          <mxGeometry relative="1" as="geometry" />
        </mxCell>
        <mxCell id="9_eo66QmF36sM_EqYJlc-39" value="" style="edgeStyle=orthogonalEdgeStyle;rounded=0;orthogonalLoop=1;jettySize=auto;html=1;fontSize=22;" edge="1" parent="1" source="9_eo66QmF36sM_EqYJlc-27" target="9_eo66QmF36sM_EqYJlc-38">
          <mxGeometry relative="1" as="geometry" />
        </mxCell>
        <mxCell id="9_eo66QmF36sM_EqYJlc-27" value="If Temperature&lt;br style=&quot;font-size: 19px;&quot;&gt;&amp;nbsp;&amp;lt; 10" style="rhombus;whiteSpace=wrap;html=1;fontSize=19;" vertex="1" parent="1">
          <mxGeometry x="240" y="40" width="120" height="80" as="geometry" />
        </mxCell>
        <mxCell id="9_eo66QmF36sM_EqYJlc-29" value="Turn On Boiler" style="whiteSpace=wrap;html=1;fontSize=19;" vertex="1" parent="1">
          <mxGeometry x="440" y="40" width="120" height="80" as="geometry" />
        </mxCell>
        <mxCell id="9_eo66QmF36sM_EqYJlc-31" value="&lt;font style=&quot;font-size: 20px;&quot;&gt;Yes&lt;/font&gt;" style="text;html=1;align=center;verticalAlign=middle;resizable=0;points=[];autosize=1;strokeColor=none;fillColor=none;fontSize=30;" vertex="1" parent="1">
          <mxGeometry x="370" y="40" width="60" height="50" as="geometry" />
        </mxCell>
        <mxCell id="9_eo66QmF36sM_EqYJlc-36" value="&lt;font style=&quot;font-size: 20px;&quot;&gt;No&lt;/font&gt;" style="text;html=1;align=center;verticalAlign=middle;resizable=0;points=[];autosize=1;strokeColor=none;fillColor=none;fontSize=30;" vertex="1" parent="1">
          <mxGeometry x="290" y="130" width="50" height="50" as="geometry" />
        </mxCell>
        <mxCell id="9_eo66QmF36sM_EqYJlc-37" value="" style="endArrow=classic;html=1;rounded=0;fontSize=30;exitX=0.5;exitY=0;exitDx=0;exitDy=0;entryX=0.5;entryY=0;entryDx=0;entryDy=0;" edge="1" parent="1" source="9_eo66QmF36sM_EqYJlc-29" target="9_eo66QmF36sM_EqYJlc-1">
          <mxGeometry width="50" height="50" relative="1" as="geometry">
            <mxPoint x="420" y="50" as="sourcePoint" />
            <mxPoint x="440" y="10" as="targetPoint" />
            <Array as="points">
              <mxPoint x="500" y="20" />
              <mxPoint x="100" y="20" />
            </Array>
          </mxGeometry>
        </mxCell>
        <mxCell id="9_eo66QmF36sM_EqYJlc-45" value="" style="edgeStyle=orthogonalEdgeStyle;rounded=0;orthogonalLoop=1;jettySize=auto;html=1;fontSize=30;" edge="1" parent="1" source="9_eo66QmF36sM_EqYJlc-38" target="9_eo66QmF36sM_EqYJlc-44">
          <mxGeometry relative="1" as="geometry" />
        </mxCell>
        <mxCell id="9_eo66QmF36sM_EqYJlc-68" value="" style="edgeStyle=orthogonalEdgeStyle;rounded=0;orthogonalLoop=1;jettySize=auto;html=1;fontSize=30;fontColor=#000000;" edge="1" parent="1" source="9_eo66QmF36sM_EqYJlc-38" target="9_eo66QmF36sM_EqYJlc-67">
          <mxGeometry relative="1" as="geometry" />
        </mxCell>
        <mxCell id="9_eo66QmF36sM_EqYJlc-38" value="If Day = Sunday/Saturday" style="rhombus;whiteSpace=wrap;html=1;fontSize=19;" vertex="1" parent="1">
          <mxGeometry x="240" y="200" width="120" height="80" as="geometry" />
        </mxCell>
        <mxCell id="9_eo66QmF36sM_EqYJlc-51" value="" style="edgeStyle=orthogonalEdgeStyle;rounded=0;orthogonalLoop=1;jettySize=auto;html=1;fontSize=30;" edge="1" parent="1" source="9_eo66QmF36sM_EqYJlc-44" target="9_eo66QmF36sM_EqYJlc-50">
          <mxGeometry relative="1" as="geometry" />
        </mxCell>
        <mxCell id="9_eo66QmF36sM_EqYJlc-92" style="edgeStyle=orthogonalEdgeStyle;rounded=0;orthogonalLoop=1;jettySize=auto;html=1;exitX=1;exitY=0.5;exitDx=0;exitDy=0;fontSize=19;fontColor=#000000;entryX=0.5;entryY=1;entryDx=0;entryDy=0;" edge="1" parent="1" source="9_eo66QmF36sM_EqYJlc-44" target="9_eo66QmF36sM_EqYJlc-1">
          <mxGeometry relative="1" as="geometry">
            <mxPoint x="420" y="130" as="targetPoint" />
            <Array as="points">
              <mxPoint x="420" y="400" />
              <mxPoint x="420" y="140" />
              <mxPoint x="100" y="140" />
            </Array>
          </mxGeometry>
        </mxCell>
        <mxCell id="9_eo66QmF36sM_EqYJlc-44" value="If Time &amp;gt; 8:00 and Time &amp;lt; 23:00" style="rhombus;whiteSpace=wrap;html=1;fontSize=19;" vertex="1" parent="1">
          <mxGeometry x="240" y="360" width="120" height="80" as="geometry" />
        </mxCell>
        <mxCell id="9_eo66QmF36sM_EqYJlc-46" value="&lt;font style=&quot;font-size: 20px;&quot;&gt;Yes&lt;/font&gt;" style="text;html=1;align=center;verticalAlign=middle;resizable=0;points=[];autosize=1;strokeColor=none;fillColor=none;fontSize=30;" vertex="1" parent="1">
          <mxGeometry x="290" y="280" width="60" height="50" as="geometry" />
        </mxCell>
        <mxCell id="9_eo66QmF36sM_EqYJlc-47" value="&lt;font style=&quot;font-size: 20px;&quot;&gt;No&lt;/font&gt;" style="text;html=1;align=center;verticalAlign=middle;resizable=0;points=[];autosize=1;strokeColor=none;fillColor=none;fontSize=30;" vertex="1" parent="1">
          <mxGeometry x="364" y="200" width="50" height="50" as="geometry" />
        </mxCell>
        <mxCell id="9_eo66QmF36sM_EqYJlc-48" value="&lt;font style=&quot;font-size: 20px;&quot;&gt;Yes&lt;/font&gt;" style="text;html=1;align=center;verticalAlign=middle;resizable=0;points=[];autosize=1;strokeColor=none;fillColor=none;fontSize=30;" vertex="1" parent="1">
          <mxGeometry x="180" y="360" width="60" height="50" as="geometry" />
        </mxCell>
        <mxCell id="9_eo66QmF36sM_EqYJlc-55" value="" style="edgeStyle=orthogonalEdgeStyle;rounded=0;orthogonalLoop=1;jettySize=auto;html=1;fontSize=30;fontColor=#000000;" edge="1" parent="1" source="9_eo66QmF36sM_EqYJlc-50" target="9_eo66QmF36sM_EqYJlc-54">
          <mxGeometry relative="1" as="geometry" />
        </mxCell>
        <mxCell id="9_eo66QmF36sM_EqYJlc-50" value="If Temperature = 2&lt;font style=&quot;font-size: 19px;&quot;&gt;2°C&lt;/font&gt;" style="rhombus;whiteSpace=wrap;html=1;fontSize=19;" vertex="1" parent="1">
          <mxGeometry x="40" y="360" width="120" height="80" as="geometry" />
        </mxCell>
        <mxCell id="9_eo66QmF36sM_EqYJlc-52" value="&lt;font style=&quot;font-size: 20px;&quot;&gt;Yes&lt;/font&gt;" style="text;html=1;align=center;verticalAlign=middle;resizable=0;points=[];autosize=1;strokeColor=none;fillColor=none;fontSize=30;" vertex="1" parent="1">
          <mxGeometry x="90" y="280" width="60" height="50" as="geometry" />
        </mxCell>
        <mxCell id="9_eo66QmF36sM_EqYJlc-53" value="" style="endArrow=classic;html=1;rounded=0;fontSize=30;fontColor=#000000;exitX=0.5;exitY=0;exitDx=0;exitDy=0;entryX=0.5;entryY=1;entryDx=0;entryDy=0;" edge="1" parent="1" source="9_eo66QmF36sM_EqYJlc-50" target="9_eo66QmF36sM_EqYJlc-1">
          <mxGeometry width="50" height="50" relative="1" as="geometry">
            <mxPoint x="90" y="270" as="sourcePoint" />
            <mxPoint x="140" y="220" as="targetPoint" />
          </mxGeometry>
        </mxCell>
        <mxCell id="9_eo66QmF36sM_EqYJlc-62" value="" style="edgeStyle=orthogonalEdgeStyle;rounded=0;orthogonalLoop=1;jettySize=auto;html=1;fontSize=30;fontColor=#000000;" edge="1" parent="1" source="9_eo66QmF36sM_EqYJlc-54" target="9_eo66QmF36sM_EqYJlc-61">
          <mxGeometry relative="1" as="geometry" />
        </mxCell>
        <mxCell id="9_eo66QmF36sM_EqYJlc-71" value="" style="edgeStyle=orthogonalEdgeStyle;rounded=0;orthogonalLoop=1;jettySize=auto;html=1;fontSize=30;fontColor=#000000;entryX=0.5;entryY=1;entryDx=0;entryDy=0;" edge="1" parent="1" source="9_eo66QmF36sM_EqYJlc-54" target="9_eo66QmF36sM_EqYJlc-29">
          <mxGeometry relative="1" as="geometry">
            <mxPoint x="420" y="120" as="targetPoint" />
            <Array as="points">
              <mxPoint x="420" y="560" />
              <mxPoint x="420" y="160" />
              <mxPoint x="500" y="160" />
            </Array>
          </mxGeometry>
        </mxCell>
        <mxCell id="9_eo66QmF36sM_EqYJlc-54" value="If Temperature &amp;lt; 22°C" style="rhombus;whiteSpace=wrap;html=1;fontSize=19;" vertex="1" parent="1">
          <mxGeometry x="40" y="520" width="120" height="80" as="geometry" />
        </mxCell>
        <mxCell id="9_eo66QmF36sM_EqYJlc-56" value="&lt;font style=&quot;font-size: 20px;&quot;&gt;No&lt;/font&gt;" style="text;html=1;align=center;verticalAlign=middle;resizable=0;points=[];autosize=1;strokeColor=none;fillColor=none;fontSize=30;" vertex="1" parent="1">
          <mxGeometry x="90" y="460" width="50" height="50" as="geometry" />
        </mxCell>
        <mxCell id="9_eo66QmF36sM_EqYJlc-60" value="&lt;font style=&quot;font-size: 20px;&quot;&gt;Yes&lt;/font&gt;" style="text;html=1;align=center;verticalAlign=middle;resizable=0;points=[];autosize=1;strokeColor=none;fillColor=none;fontSize=30;" vertex="1" parent="1">
          <mxGeometry x="160" y="520" width="60" height="50" as="geometry" />
        </mxCell>
        <mxCell id="9_eo66QmF36sM_EqYJlc-61" value="Turn Off Boiler" style="whiteSpace=wrap;html=1;fontSize=19;" vertex="1" parent="1">
          <mxGeometry x="40" y="680" width="120" height="80" as="geometry" />
        </mxCell>
        <mxCell id="9_eo66QmF36sM_EqYJlc-63" value="&lt;font style=&quot;font-size: 20px;&quot;&gt;No&lt;/font&gt;" style="text;html=1;align=center;verticalAlign=middle;resizable=0;points=[];autosize=1;strokeColor=none;fillColor=none;fontSize=30;" vertex="1" parent="1">
          <mxGeometry x="90" y="600" width="50" height="50" as="geometry" />
        </mxCell>
        <mxCell id="9_eo66QmF36sM_EqYJlc-64" value="" style="endArrow=classic;html=1;rounded=0;fontSize=30;fontColor=#000000;exitX=0;exitY=0.5;exitDx=0;exitDy=0;entryX=0;entryY=0.5;entryDx=0;entryDy=0;" edge="1" parent="1" source="9_eo66QmF36sM_EqYJlc-61" target="9_eo66QmF36sM_EqYJlc-1">
          <mxGeometry width="50" height="50" relative="1" as="geometry">
            <mxPoint x="10" y="840" as="sourcePoint" />
            <mxPoint x="20" y="660" as="targetPoint" />
            <Array as="points">
              <mxPoint x="10" y="720" />
              <mxPoint x="10" y="80" />
            </Array>
          </mxGeometry>
        </mxCell>
        <mxCell id="9_eo66QmF36sM_EqYJlc-74" value="" style="edgeStyle=orthogonalEdgeStyle;rounded=0;orthogonalLoop=1;jettySize=auto;html=1;fontSize=30;fontColor=#000000;entryX=0.5;entryY=0;entryDx=0;entryDy=0;" edge="1" parent="1" source="9_eo66QmF36sM_EqYJlc-67" target="9_eo66QmF36sM_EqYJlc-73">
          <mxGeometry relative="1" as="geometry">
            <Array as="points">
              <mxPoint x="740" y="200" />
            </Array>
          </mxGeometry>
        </mxCell>
        <mxCell id="9_eo66QmF36sM_EqYJlc-94" style="edgeStyle=orthogonalEdgeStyle;rounded=0;orthogonalLoop=1;jettySize=auto;html=1;exitX=0.5;exitY=0;exitDx=0;exitDy=0;entryX=0.5;entryY=0;entryDx=0;entryDy=0;fontSize=19;fontColor=#000000;" edge="1" parent="1" source="9_eo66QmF36sM_EqYJlc-67" target="9_eo66QmF36sM_EqYJlc-1">
          <mxGeometry relative="1" as="geometry" />
        </mxCell>
        <mxCell id="9_eo66QmF36sM_EqYJlc-67" value="If Time &amp;gt; 6:00 and Time &amp;lt; 8:30 or Time &amp;gt; 17:30 and Time &amp;lt; 22:00" style="rhombus;whiteSpace=wrap;html=1;fontSize=19;" vertex="1" parent="1">
          <mxGeometry x="590" y="160" width="120" height="80" as="geometry" />
        </mxCell>
        <mxCell id="9_eo66QmF36sM_EqYJlc-81" value="" style="edgeStyle=orthogonalEdgeStyle;rounded=0;orthogonalLoop=1;jettySize=auto;html=1;fontSize=30;fontColor=#000000;" edge="1" parent="1" source="9_eo66QmF36sM_EqYJlc-73" target="9_eo66QmF36sM_EqYJlc-80">
          <mxGeometry relative="1" as="geometry" />
        </mxCell>
        <mxCell id="9_eo66QmF36sM_EqYJlc-83" style="edgeStyle=orthogonalEdgeStyle;rounded=0;orthogonalLoop=1;jettySize=auto;html=1;exitX=0.5;exitY=1;exitDx=0;exitDy=0;fontSize=30;fontColor=#000000;" edge="1" parent="1" source="9_eo66QmF36sM_EqYJlc-73">
          <mxGeometry relative="1" as="geometry">
            <mxPoint x="40" y="80" as="targetPoint" />
            <Array as="points">
              <mxPoint x="740" y="640" />
              <mxPoint x="10" y="640" />
            </Array>
          </mxGeometry>
        </mxCell>
        <mxCell id="9_eo66QmF36sM_EqYJlc-73" value="If Temperature = 20°C" style="rhombus;whiteSpace=wrap;html=1;fontSize=19;" vertex="1" parent="1">
          <mxGeometry x="680" y="360" width="120" height="80" as="geometry" />
        </mxCell>
        <mxCell id="9_eo66QmF36sM_EqYJlc-85" style="edgeStyle=orthogonalEdgeStyle;rounded=0;orthogonalLoop=1;jettySize=auto;html=1;exitX=0.5;exitY=1;exitDx=0;exitDy=0;entryX=1;entryY=0.5;entryDx=0;entryDy=0;fontSize=30;fontColor=#000000;" edge="1" parent="1" source="9_eo66QmF36sM_EqYJlc-80" target="9_eo66QmF36sM_EqYJlc-61">
          <mxGeometry relative="1" as="geometry" />
        </mxCell>
        <mxCell id="9_eo66QmF36sM_EqYJlc-88" value="" style="edgeStyle=orthogonalEdgeStyle;rounded=0;orthogonalLoop=1;jettySize=auto;html=1;fontSize=30;fontColor=#000000;" edge="1" parent="1" source="9_eo66QmF36sM_EqYJlc-80">
          <mxGeometry relative="1" as="geometry">
            <mxPoint x="500" y="120" as="targetPoint" />
            <Array as="points">
              <mxPoint x="540" y="280" />
              <mxPoint x="500" y="280" />
            </Array>
          </mxGeometry>
        </mxCell>
        <mxCell id="9_eo66QmF36sM_EqYJlc-80" value="If Temperature &amp;lt; 20°C" style="rhombus;whiteSpace=wrap;html=1;fontSize=19;" vertex="1" parent="1">
          <mxGeometry x="480" y="360" width="120" height="80" as="geometry" />
        </mxCell>
        <mxCell id="9_eo66QmF36sM_EqYJlc-82" value="&lt;font style=&quot;font-size: 20px;&quot;&gt;Yes&lt;/font&gt;" style="text;html=1;align=center;verticalAlign=middle;resizable=0;points=[];autosize=1;strokeColor=none;fillColor=none;fontSize=30;" vertex="1" parent="1">
          <mxGeometry x="730" y="440" width="60" height="50" as="geometry" />
        </mxCell>
        <mxCell id="9_eo66QmF36sM_EqYJlc-84" value="&lt;font style=&quot;font-size: 20px;&quot;&gt;No&lt;/font&gt;" style="text;html=1;align=center;verticalAlign=middle;resizable=0;points=[];autosize=1;strokeColor=none;fillColor=none;fontSize=30;" vertex="1" parent="1">
          <mxGeometry x="625" y="360" width="50" height="50" as="geometry" />
        </mxCell>
        <mxCell id="9_eo66QmF36sM_EqYJlc-86" value="&lt;font style=&quot;font-size: 20px;&quot;&gt;No&lt;/font&gt;" style="text;html=1;align=center;verticalAlign=middle;resizable=0;points=[];autosize=1;strokeColor=none;fillColor=none;fontSize=30;" vertex="1" parent="1">
          <mxGeometry x="530" y="440" width="50" height="50" as="geometry" />
        </mxCell>
        <mxCell id="9_eo66QmF36sM_EqYJlc-89" value="&lt;font style=&quot;font-size: 20px;&quot;&gt;Yes&lt;/font&gt;" style="text;html=1;align=center;verticalAlign=middle;resizable=0;points=[];autosize=1;strokeColor=none;fillColor=none;fontSize=30;" vertex="1" parent="1">
          <mxGeometry x="490" y="300" width="60" height="50" as="geometry" />
        </mxCell>
        <mxCell id="9_eo66QmF36sM_EqYJlc-91" value="&lt;font style=&quot;font-size: 20px;&quot;&gt;Yes&lt;/font&gt;" style="text;html=1;align=center;verticalAlign=middle;resizable=0;points=[];autosize=1;strokeColor=none;fillColor=none;fontSize=30;" vertex="1" parent="1">
          <mxGeometry x="730" y="190" width="60" height="50" as="geometry" />
        </mxCell>
        <mxCell id="9_eo66QmF36sM_EqYJlc-93" value="&lt;font style=&quot;font-size: 20px;&quot;&gt;No&lt;/font&gt;" style="text;html=1;align=center;verticalAlign=middle;resizable=0;points=[];autosize=1;strokeColor=none;fillColor=none;fontSize=30;" vertex="1" parent="1">
          <mxGeometry x="360" y="360" width="50" height="50" as="geometry" />
        </mxCell>
        <mxCell id="9_eo66QmF36sM_EqYJlc-95" value="&lt;font style=&quot;font-size: 20px;&quot;&gt;No&lt;/font&gt;" style="text;html=1;align=center;verticalAlign=middle;resizable=0;points=[];autosize=1;strokeColor=none;fillColor=none;fontSize=30;" vertex="1" parent="1">
          <mxGeometry x="640" y="90" width="50" height="50" as="geometry" />
        </mxCell>
      </root>
    </mxGraphModel>
  </diagram>
</mxfile>
